<svg width="40" height="40" viewBox="0 0 40 40" fill="none" xmlns="http://www.w3.org/2000/svg">
<g clip-path="url(#clip0)">
<rect width="40" height="40" rx="3" fill="white"/>
<path fill-rule="evenodd" clip-rule="evenodd" d="M21.3653 40H2.20859C1.62305 39.9998 1.06156 39.767 0.647601 39.3529C0.233638 38.9388 0.00109875 38.3772 0.00109879 37.7917V2.20833C0.000989282 1.9183 0.0580306 1.63108 0.168971 1.36311C0.279911 1.09513 0.442568 0.85165 0.647652 0.646566C0.852737 0.441481 1.09623 0.278813 1.36421 0.167872C1.63218 0.0569319 1.91939 -0.000109351 2.20943 1.57378e-07H37.7936C38.0836 1.36717e-07 38.3707 0.0571245 38.6386 0.168114C38.9065 0.279103 39.1499 0.441785 39.3548 0.646858C39.5598 0.851932 39.7224 1.09539 39.8333 1.36331C39.9442 1.63123 40.0012 1.91837 40.0011 2.20833V37.7917C40.0011 38.3772 39.7686 38.9388 39.3546 39.3529C38.9406 39.767 38.3792 39.9998 37.7936 40H27.6003V24.51H32.8003L33.5786 18.4733H27.6003V14.6192C27.6003 12.8708 28.0861 11.68 30.5919 11.68L33.7886 11.6783V6.27917C33.2361 6.20584 31.3386 6.04167 29.1303 6.04167C24.5219 6.04167 21.3661 8.855 21.3661 14.0208V18.4733H16.1536V24.51H21.3661V40H21.3653Z" fill="#3B5998"/>
</g>
<defs>
<clipPath id="clip0">
<rect width="40" height="40" rx="3" fill="white"/>
</clipPath>
</defs>
</svg>
