<svg width="40" height="40" viewBox="0 0 40 40" fill="none" xmlns="http://www.w3.org/2000/svg">
<path d="M37.7778 0H2.22222C0.994923 0 0 0.994923 0 2.22222V37.7778C0 39.0051 0.994923 40 2.22222 40H37.7778C39.0051 40 40 39.0051 40 37.7778V2.22222C40 0.994923 39.0051 0 37.7778 0Z" fill="#54ACEE"/>
<path fill-rule="evenodd" clip-rule="evenodd" d="M34.4444 11.161C33.3646 11.649 32.2165 11.9692 31.04 12.1105C32.2838 11.3502 33.2097 10.1647 33.6461 8.77381C32.4856 9.47544 31.2123 9.97073 29.8828 10.2377C28.8017 9.06659 27.2611 8.33325 25.5566 8.33325C22.2839 8.33325 19.63 11.0333 19.63 14.3644C19.63 14.8366 19.6822 15.2966 19.7839 15.7383C14.8578 15.4866 10.4905 13.086 7.56721 9.43714C7.03916 10.3605 6.76255 11.4062 6.76499 12.4699C6.76144 13.4582 6.99982 14.4323 7.45932 15.3072C7.91882 16.1821 8.58547 16.9313 9.4011 17.4894C8.4584 17.4584 7.53726 17.1994 6.71665 16.7344L6.7161 16.811C6.7161 19.7321 8.75943 22.1694 11.4705 22.7244C10.5982 22.9645 9.68203 22.9995 8.79388 22.8266C9.54832 25.2227 11.7372 26.9671 14.33 27.0155C12.2416 28.6883 9.6452 29.599 6.96943 29.5971C6.49165 29.5971 6.01943 29.5688 5.55554 29.5127C8.17943 31.2244 11.2944 32.2221 14.6411 32.2221C25.5433 32.2221 31.5039 23.0333 31.5039 15.0633C31.5039 14.8021 31.4983 14.541 31.4872 14.2821C32.651 13.4263 33.6525 12.3693 34.4444 11.161V11.161Z" fill="white"/>
</svg>
